# xmcd
#
# Track frame offsets:
#	150
#	9519
#	21500
#	32103
#	44468
#	56256
#	66583
#	77229
#	90706
#	100508
#	109873
#
# Disc length: 1599 seconds
#
# Revision: 1
# Processed by: cddbd v1.5.2PL0 Copyright (c) Steve Scherf et al.
# Submitted via: audiograbber 1.83.01
#
DISCID=8b063d0b
DTITLE=Buck Owens - It Takes People Like You 
DYEAR=1968
DGENRE=Country
TTITLE0=It Takes People Like You (To M
TTITLE1=The Way That I Love You
TTITLE2=We Were Made For Each Other
TTITLE3=That's How I Measure My Love F
TTITLE4=If I Knew
TTITLE5=I'm Gonna Live It Up
TTITLE6=Where Does The Good Times Go
TTITLE7=You Left Her Lonely Too Long
TTITLE8=Let The World Keep On A Turnin
TTITLE9=I've Got It Bad For You
TTITLE10=Long, Long Ago
EXTD=
EXTT0=
EXTT1=
EXTT2=
EXTT3=
EXTT4=
EXTT5=
EXTT6=
EXTT7=
EXTT8=
EXTT9=
EXTT10=
PLAYORDER=
